<?xml version="1.0" encoding="utf-8"?>
<!-- Generator: Adobe Illustrator 24.1.0, SVG Export Plug-In . SVG Version: 6.00 Build 0)  -->
<svg version="1.1" id="Calque_1" xmlns="http://www.w3.org/2000/svg" xmlns:xlink="http://www.w3.org/1999/xlink" x="0px" y="0px"
	 viewBox="0 0 41.4 41.4" style="enable-background:new 0 0 41.4 41.4;" xml:space="preserve">
<style type="text/css">
	.st0{fill:#FFFFFF;}
</style>
<g>
	<g id="Layer_1">
		<path class="st0" d="M30,0H11.4C5.1,0,0,5.1,0,11.4l0,0V30c0,6.3,5.1,11.4,11.4,11.4H30c6.3,0,11.4-5.1,11.4-11.4V11.4
			C41.4,5.1,36.3,0,30,0z M38,29.9c0,4.4-3.6,8-8.1,8.1H11.4c-4.5,0-8.1-3.6-8.1-8.1l0,0V11.4C3.3,7,7,3.3,11.4,3.3h18.5
			c4.5,0,8.1,3.6,8.1,8.1V29.9z"/>
		<path class="st0" d="M20.7,9.8c-6,0-10.9,4.9-10.9,10.9s4.9,10.9,10.9,10.9s10.9-4.9,10.9-10.9l0,0C31.6,14.7,26.7,9.8,20.7,9.8
			L20.7,9.8z M20.7,27.8c-3.9,0-7.1-3.2-7.1-7.1s3.2-7.1,7.1-7.1s7.1,3.2,7.1,7.1C27.8,24.6,24.6,27.8,20.7,27.8L20.7,27.8
			L20.7,27.8z"/>
		<path class="st0" d="M34.4,9.4c0,1.4-1.1,2.5-2.4,2.5c-1.4,0-2.5-1.1-2.5-2.4S30.6,7,31.9,7c0,0,0,0,0.1,0
			C33.3,7,34.4,8.1,34.4,9.4z"/>
	</g>
</g>
</svg>
