<?xml version="1.0" encoding="UTF-8"?>
<svg id="Calque_2" data-name="Calque 2" xmlns="http://www.w3.org/2000/svg" viewBox="0 0 170.43 162.12">
  <defs>
    <style>
      .cls-1 {
        fill: #d62725;
      }

      .cls-2 {
        fill: #fff;
      }
    </style>
  </defs>
  <g id="Calque_1-2" data-name="Calque 1">
    <path class="cls-1" d="M33.31,41.6c.36.03.69-.16.83-.5C43.87,17.67,68.21,2.48,94.68,5.48c4.84.55,9.47,1.68,13.84,3.3-5.14-2.1-10.66-3.54-16.45-4.2-10.86-1.23-21.38.44-30.79,4.39l-4.62-5.8c-2.9-3.64-8.2-4.24-11.84-1.34l-13.12,10.45c-3.64,2.9-4.24,8.2-1.34,11.84l4.62,5.8c-2.37,3.3-4.43,6.85-6.12,10.61-.26.58.22,1.21.85,1.13.75-.09,1.49-.14,2.2-.14.48,0,.95.02,1.41.06ZM33.18,21.88c-1.66-2.08-1.31-5.11.77-6.77l13.12-10.45c2.08-1.66,5.11-1.31,6.77.77l4.05,5.09c-7.98,3.93-15.04,9.56-20.66,16.46l-4.05-5.09Z"/>
    <g>
      <path class="cls-2" d="M61.32,46.82h0c.33-.06.62-.26.78-.55.7-1.24,1.23-2.31,1.59-3.22.4-1.01.6-1.85.6-2.51,0-.78-.23-1.41-.68-1.87-.45-.46-1.06-.69-1.82-.69-1.13,0-2.12.39-2.97,1.18-.85.79-1.62,2.02-2.33,3.71-.27.66-.64,1.62-1.1,2.87-1.12,3.05-2.17,5.08-3.14,6.1-.34-.07-.64-.12-.9-.15-.27-.03-.52-.05-.75-.05-.92,0-1.62.12-2.11.37-.48.25-.73.6-.73,1.06s.19.77.56.98c.37.21.96.31,1.76.31.44,0,.87-.04,1.29-.12.42-.08.82-.2,1.22-.37.73.21,1.45.36,2.15.46.7.1,1.39.15,2.08.15.63,0,1.31-.03,2.02-.09.55-.05,1.15-.12,1.81-.21.39-.06.72-.33.86-.7h0c.27-.76-.36-1.53-1.16-1.42-.32.05-.64.09-.95.12-.9.1-1.77.15-2.61.15-.34,0-.68-.01-1.03-.04-.35-.03-.7-.07-1.06-.12.84-1.1,1.79-3.08,2.85-5.92.37-.99.66-1.74.87-2.25.5-1.23,1.01-2.21,1.55-2.91.54-.71,1.02-1.06,1.45-1.06.21,0,.37.06.48.19.11.13.17.3.17.53,0,.53-.27,1.36-.82,2.49-.29.59-.64,1.23-1.05,1.93-.48.81.2,1.81,1.13,1.66Z"/>
      <path class="cls-2" d="M66.39,52.61c-.37,0-.66-.08-.87-.23-.22-.16-.34-.37-.37-.65,1.69-.25,3.04-.74,4.05-1.46,1.01-.72,1.51-1.55,1.51-2.47,0-.59-.2-1.05-.61-1.37s-.98-.48-1.74-.48c-1.52,0-2.84.54-3.97,1.61-1.13,1.07-1.7,2.35-1.7,3.85,0,1.02.27,1.79.81,2.32s1.33.79,2.38.79c.82,0,1.66-.19,2.52-.56.78-.34,1.69-.88,2.72-1.63.21-.15.33-.4.33-.65h0c0-.66-.74-1.04-1.28-.66s-1.05.69-1.54.94c-.86.44-1.61.66-2.23.66ZM66.35,48.31c.57-.48,1.09-.73,1.54-.73.19,0,.34.05.46.15.11.1.17.24.17.41,0,.4-.32.79-.96,1.17-.64.37-1.47.63-2.48.78.27-.7.7-1.29,1.27-1.78Z"/>
    </g>
    <path class="cls-1" d="M139.3,95.88c-11.11,20.02-33.51,32.45-57.68,29.71-21.6-2.45-39.1-16.38-47.12-35.01-.31-.73-1.23-.92-1.81-.38-.75.69-1.6,1.32-2.54,1.9-.37.23-.76.44-1.15.64-.53.27-.76.9-.53,1.44,8.45,19.72,26.96,34.47,49.8,37.05,10.86,1.23,21.38-.44,30.79-4.39l4.62,5.8c2.9,3.64,8.2,4.24,11.84,1.34l13.12-10.45c3.64-2.9,4.24-8.2,1.34-11.84l-4.62-5.8c2.34-3.25,4.36-6.75,6.04-10.45-.84.38-1.4.45-1.9.45-.07,0-.14,0-.21-.01ZM137.16,113.94c1.66,2.08,1.31,5.11-.77,6.77l-13.12,10.45c-2.08,1.66-5.11,1.31-6.77-.77l-4.05-5.09c7.98-3.93,15.04-9.56,20.66-16.46l4.05,5.09Z"/>
    <g>
      <path class="cls-2" d="M37.81,47.79c-1.46-1.13-3.39-1.69-5.81-1.69-1.93,0-4,.37-6.22,1.12-2.22.75-4.31,1.78-6.26,3.09-2.38,1.6-4.26,3.47-5.66,5.61-1.39,2.14-2.09,4.24-2.09,6.29s.64,3.95,1.92,5.63c1.28,1.68,3.2,3.19,5.76,4.52.37.18.91.46,1.63.83,4.59,2.32,6.89,4.34,6.89,6.09s-1.21,3.27-3.64,4.41c-2.43,1.14-5.6,1.71-9.51,1.71-2.58,0-4.63-.24-6.13-.72-1.51-.48-2.26-1.12-2.26-1.92,0-.66.59-1.22,1.77-1.69,1.18-.47,2.69-.71,4.53-.71.72,0,1.47.03,2.26.09.06,0,.13.01.19.02,1.31.11,2.5-.75,2.77-2.04l.09-.41c.31-1.47-.69-2.92-2.18-3.1,0,0-.02,0-.03,0-.86-.1-1.66-.15-2.4-.15-4,0-7.23.76-9.71,2.27-2.48,1.52-3.72,3.46-3.72,5.84,0,2.52,1.24,4.5,3.73,5.95,2.49,1.44,5.95,2.17,10.37,2.17,6.19,0,11.07-1.09,14.65-3.27,3.58-2.18,5.36-5.14,5.36-8.87,0-1.89-.53-3.6-1.6-5.13s-2.6-2.83-4.61-3.87c-.72-.35-1.71-.83-2.98-1.44-4.65-2.19-6.98-4.44-6.98-6.73,0-1.33.53-2.63,1.6-3.9,1.07-1.27,2.63-2.49,4.7-3.66,1.33-.74,2.73-1.33,4.18-1.78,1.45-.45,2.66-.68,3.63-.68.59,0,1.1.13,1.52.4s.63.57.63.92c0,.88-.86,1.83-2.57,2.84-1.38.82-3.13,1.55-5.25,2.2-.98.3-1.72,1.11-1.93,2.11h0c-.4,1.99,1.38,3.75,3.36,3.29,2.87-.68,5.38-1.81,7.51-3.4,3.1-2.31,4.66-4.88,4.66-7.73,0-1.86-.73-3.36-2.18-4.49Z"/>
      <path class="cls-2" d="M164.79,82.91c-1.83,1.14-2.94,1.71-3.3,1.71-.1,0-.18-.06-.23-.17-.05-.11-.08-.28-.08-.51,0-.02.1-.23.29-.61.19-.39.36-.75.51-1.08l4.24-9.28c.1-.25.25-.57.43-.98.55-1.17.83-1.95.83-2.34,0-.49-.24-.92-.72-1.28-.48-.36-1.04-.54-1.68-.54-1.41,0-3.41.79-5.99,2.37-2.58,1.58-6.21,4.25-10.88,8.02l3.77-7.99c.4-.86-.22-1.84-1.17-1.84h-2.85c-.51,0-.97.3-1.18.76l-1.28,2.81c-.12.29-.97,1.15-2.55,2.6-1.36,1.25-3.04,2.62-5.01,4.29h0c-1.93,1.62-3.79,2.99-5.59,4.1-1.8,1.12-2.91,1.68-3.32,1.68-.06,0-.1-.01-.11-.03-.01-.02-.03-.07-.05-.15,0-.25.05-.56.15-.95.1-.39.25-.8.43-1.23l2.01-5.12c.33-.85-.29-1.76-1.2-1.76h-2.63c-.5,0-.96.3-1.17.75-1.31,2.76-2.78,4.97-4.4,6.63-1.77,1.8-3.45,2.7-5.03,2.7-.57,0-1.04-.29-1.4-.86-.36-.57-.54-1.33-.54-2.27,0-2.89,1.22-5.34,3.67-7.36,2.45-2.02,5.45-3.03,8.99-3.03.84,0,1.7.11,2.58.32.29.07.59.16.89.25.87.29,1.76-.38,1.71-1.29l-.11-1.93c-.03-.59-.47-1.09-1.06-1.2-.99-.18-1.75-.31-2.27-.38-.69-.09-1.32-.14-1.89-.14-5.12,0-9.47,1.5-13.03,4.5-2.34,1.97-3.9,4.25-4.7,6.82-1.91,1.58-3.76,2.93-5.57,4.04-1.82,1.13-2.93,1.69-3.32,1.69-.1,0-.18-.06-.23-.17-.05-.11-.08-.28-.08-.51,0-.06.14-.38.43-.95.14-.29.27-.53.37-.74l3.47-7.25c.35-.76.61-1.44.8-2.06.18-.61.28-1.15.28-1.6,0-1.09-.41-1.88-1.23-2.38-.82-.5-2.13-.75-3.93-.75-.35,0-.98.03-1.91.09-.25.02-.43.03-.55.03-.1-1.39-.43-2.43-.98-3.12-.55-.69-1.34-1.03-2.37-1.03-.92,0-1.69.34-2.29,1.01-.61.68-.91,1.54-.91,2.58,0,.45.1.92.29,1.41s.52,1.07.97,1.72c-.66,1.19-1.7,2.52-3.14,4-1.2,1.24-2.69,2.51-4.43,3.93h0c-.68.64-1.66,1.39-2.95,2.27-1.29.88-3.16,2.08-5.59,3.6-.59,5-1.65,9.34-3.18,13.03-1.53,3.69-2.82,5.53-3.89,5.53-.16,0-.32-.09-.46-.26-.14-.17-.22-.36-.22-.57,0-.06.02-.17.05-.32s.08-.34.14-.57l10.64-30.4c2.83-6.21,7.21-17.85,8.59-21.77,1.38-3.92,2.07-6.83,2.07-8.71,0-.86-.2-1.55-.58-2.06-.39-.51-.89-.77-1.51-.77-.88,0-1.67.45-2.35,1.34-.69.89-1.44,2.47-2.26,4.75l-9.75,28.06c-1.21,1.25-2.51,2.51-3.9,3.78-1.13,1.03-2.35,1.98-3.66,3.07h0c-1.93,1.62-3.79,2.99-5.59,4.1-1.8,1.12-2.91,1.68-3.32,1.68-.06,0-.1-.01-.11-.03-.01-.02-.03-.07-.05-.15,0-.25.05-.56.15-.95.1-.39.25-.8.43-1.23l2.01-5.12c.33-.85-.29-1.76-1.2-1.76h-2.63c-.5,0-.96.3-1.17.75-1.31,2.76-2.78,4.97-4.4,6.63-1.77,1.8-3.45,2.7-5.03,2.7-.57,0-1.04-.29-1.4-.86-.36-.57-.54-1.33-.54-2.27,0-2.89,1.22-5.34,3.67-7.36,2.45-2.02,5.45-3.03,8.99-3.03.84,0,1.7.11,2.58.32.29.07.59.16.89.25.87.29,1.76-.38,1.71-1.29l-.11-1.93c-.03-.59-.47-1.09-1.06-1.2-.99-.18-1.75-.31-2.27-.38-.69-.09-1.32-.14-1.89-.14-5.12,0-9.47,1.5-13.03,4.5-3.57,3-5.35,6.71-5.35,11.11,0,2.56.56,4.5,1.68,5.83s2.74,1.98,4.87,1.98c1.13,0,2.22-.23,3.29-.69,1.06-.46,2.33-1.28,3.78-2.44v.37c0,1.02.16,1.74.49,2.15s.9.61,1.72.61c1.19,0,2.91-.57,5.16-1.72,2-1.02,4.26-2.42,6.77-4.2v.02c.72-.45,1.51-1.01,2.37-1.68.86-.67,1.85-1.47,2.98-2.41l-5.41,15.92c-.53,1.54-.95,2.93-1.24,4.18-.3,1.25-.45,2.24-.45,2.98,0,1.5.37,2.66,1.12,3.49.75.83,1.78,1.24,3.09,1.24,2.99,0,5.75-2.06,8.28-6.18,2.53-4.12,3.8-9.03,3.8-14.72.53-.31,1.27-.77,2.2-1.4.93-.62,1.94-1.34,3.03-2.14h0c2.1-1.51,4.04-3.11,5.8-4.83,2.04-1.99,3.93-4.21,5.67-6.67.14,0,.35-.02.63-.05.28-.03.47-.05.57-.05.49,0,.82.06,1,.17.17.11.26.31.26.6,0,.14-.03.31-.09.51-.06.2-.16.45-.31.75l-3.32,6.49c-.1.18-.25.46-.43.83-1.43,2.79-2.15,4.69-2.15,5.72s.33,1.78,1,2.32c.67.54,1.61.81,2.84.81s2.96-.58,5.24-1.74c2.12-1.07,4.47-2.55,7.06-4.43.2,1.76.72,3.16,1.58,4.18,1.12,1.32,2.74,1.98,4.87,1.98,1.13,0,2.22-.23,3.29-.69,1.06-.46,2.33-1.28,3.78-2.44v.37c0,1.02.16,1.74.49,2.15s.9.61,1.72.61c1.19,0,2.91-.57,5.16-1.72,2-1.02,4.26-2.42,6.77-4.2v.02c.53-.33,1.08-.71,1.64-1.14.56-.43,1.15-.91,1.77-1.44l-2.21,4.58c-.16.37-.29.71-.37,1.01-.08.31-.12.58-.12.83,0,.59.18,1.11.54,1.54s.78.65,1.28.65c1.02,0,3.65-1.85,7.87-5.56,4.22-3.71,8.15-6.86,11.77-9.47l-4.03,8.88c-.47,1.02-.79,1.8-.95,2.34-.16.53-.25,1.01-.25,1.44,0,.68.28,1.22.83,1.63s1.28.61,2.18.61c1.5,0,3.38-.56,5.66-1.68,2.04-1,4.35-2.43,6.93-4.27.57-.41.91-1.07.91-1.78h0c0-1.76-1.98-2.82-3.42-1.81-.75.52-1.49,1.01-2.22,1.47Z"/>
    </g>
    <g>
      <path class="cls-2" d="M16.48,103.23c-.39.41-.92.79-1.58,1.16-.08.04-.14.04-.19,0-.05-.03-.11-.14-.2-.32-.03-.07-.1-.23-.2-.47.71-.39,1.26-.77,1.65-1.15.39-.38.66-.71.82-.99-.03-.04-.06-.11-.1-.19l-.17-.36-2.68,1.26c-.06.03-.1.04-.14.02-.03-.01-.08-.09-.14-.21-.07-.13-.15-.3-.25-.52l6.84-3.21s.06-.02.11-.02.09.04.12.1l.46.98c.29.62.35,1.16.18,1.6-.18.44-.61.82-1.29,1.14-.98.46-1.77.48-2.37.06-.18.34-.47.72-.86,1.12ZM17.46,100.99c.14.29.35.45.65.48.29.03.7-.08,1.22-.32.41-.19.68-.4.83-.61.15-.22.16-.47.02-.75l-.23-.49-2.7,1.27.2.43Z"/>
      <path class="cls-2" d="M15.94,106.31c.07-.36.33-.73.77-1.12.44-.39,1.13-.84,2.06-1.35.85-.47,1.57-.77,2.14-.92s1.05-.14,1.41,0c.37.15.67.44.9.86.23.42.31.81.23,1.17-.08.36-.33.73-.76,1.11-.43.38-1.08.81-1.96,1.29-.88.48-1.62.8-2.2.96-.58.16-1.06.17-1.43.03-.37-.14-.67-.42-.91-.85-.24-.43-.32-.83-.25-1.19ZM17.58,107.49c.25.04.59-.02,1.02-.18.43-.15.98-.42,1.65-.78.67-.37,1.18-.68,1.53-.94.35-.26.57-.49.67-.71.1-.22.08-.45-.04-.68-.13-.23-.32-.36-.58-.4-.26-.04-.61.02-1.06.18-.45.16-1.02.43-1.72.82-.62.34-1.1.64-1.43.89s-.55.49-.65.71c-.1.22-.08.44.04.67.13.24.32.37.58.41ZM24.21,103.6c.09-.25.16-.43.23-.53-.05,0-.16-.02-.33-.05-.17-.03-.34-.07-.5-.12-.17-.04-.26-.09-.29-.14-.13-.23-.15-.45-.07-.65l1.79.44s.09.09.12.15c.05.09.05.19.01.3-.02.07-.07.22-.15.46-.08.24-.16.47-.25.7-.09.23-.16.35-.2.38-.06.04-.15,0-.25-.08-.1-.08-.19-.2-.27-.35.03-.09.08-.26.17-.51Z"/>
      <path class="cls-2" d="M26.31,109.17l-.55.34c-.06.04-.11.05-.15.04-.04-.01-.07-.04-.11-.1l-.71-1.14-5.69,3.56c-.06.03-.1.05-.14.03-.03-.01-.09-.08-.17-.2-.08-.12-.18-.28-.31-.49l5.84-3.65-.79-1.26.56-.35c.1-.06.18-.04.25.06l1.97,3.15Z"/>
      <path class="cls-2" d="M26.52,110.17c.12-.08.21-.13.27-.13.06,0,.12.03.19.11.07.08.2.25.38.53l-6.22,4.28c-.05.04-.1.05-.13.04-.04-.01-.1-.08-.18-.19-.09-.12-.2-.28-.34-.48l6.03-4.15Z"/>
      <path class="cls-2" d="M22.12,116.49c-.05-.28,0-.47.13-.57.08-.06.17-.11.29-.14.12-.04.24-.06.36-.06-.03.38.09.76.37,1.13.43.58.95.64,1.55.18.21-.16.37-.34.48-.54.11-.2.21-.49.29-.85l.37-1.65c.09-.38.2-.69.34-.92.13-.23.31-.43.52-.59.38-.29.79-.39,1.22-.29.43.09.82.37,1.17.84.29.39.47.71.53.95.06.25.02.42-.11.52-.15.11-.33.15-.54.13,0-.1-.03-.25-.11-.44-.08-.19-.19-.38-.32-.57-.2-.26-.41-.43-.63-.5-.22-.07-.43-.04-.62.11-.15.12-.27.25-.35.41-.08.16-.15.38-.22.65l-.37,1.77c-.1.42-.23.76-.39,1.01-.16.25-.38.49-.66.7-.5.38-.99.56-1.48.54-.49-.01-.94-.29-1.35-.85-.28-.37-.44-.69-.48-.97Z"/>
      <path class="cls-2" d="M24.98,120.19c-.06-.28-.03-.47.1-.58.07-.06.17-.12.28-.16.12-.04.23-.07.35-.08-.01.38.13.75.43,1.11.47.55.99.58,1.56.1.2-.17.35-.36.45-.57.1-.21.18-.5.24-.86l.28-1.67c.07-.38.17-.7.29-.94.12-.24.28-.45.48-.62.37-.31.76-.43,1.2-.36.43.07.84.33,1.22.78.31.37.51.68.58.92.07.24.05.42-.08.53-.14.12-.32.17-.53.16,0-.1-.04-.25-.13-.44-.09-.19-.21-.37-.36-.55-.21-.25-.43-.41-.66-.47-.23-.06-.43-.01-.62.14-.15.12-.25.27-.32.43-.07.17-.13.38-.19.66l-.27,1.79c-.07.42-.18.77-.33,1.03-.15.26-.35.51-.62.74-.48.4-.96.61-1.44.63-.48.01-.95-.24-1.4-.77-.3-.35-.48-.66-.54-.94Z"/>
      <path class="cls-2" d="M29.06,123.74l1.29,1.36c-.16.15-.28.26-.38.35-.1.09-.17.13-.21.14-.04,0-.08-.02-.12-.06l-1.77-1.87,5.49-5.19s.06-.04.1-.05c.05-.02.1,0,.15.06l1.8,1.91c-.15.14-.27.26-.37.34-.1.09-.17.13-.21.14-.04,0-.08-.01-.12-.05l-1.21-1.28-1.68,1.58,1.13,1.2c-.14.14-.27.25-.37.34-.1.09-.17.14-.22.15-.04.01-.09,0-.13-.04l-1.02-1.08-2.18,2.05Z"/>
      <path class="cls-2" d="M34.42,127.22c-.22.52-.57,1.07-1.05,1.65-.06.06-.12.09-.18.07-.06-.01-.16-.09-.3-.22-.06-.05-.18-.18-.36-.37.52-.62.89-1.18,1.11-1.67.22-.49.36-.9.4-1.23-.04-.03-.1-.08-.17-.14l-.29-.27-2.04,2.15s-.08.07-.12.07-.1-.05-.21-.15c-.11-.1-.25-.23-.42-.39l5.2-5.48s.05-.04.1-.06c.05-.02.1,0,.15.05l.78.74c.5.48.75.95.75,1.42,0,.47-.27.99-.79,1.54-.74.79-1.47,1.09-2.19.92-.04.38-.18.84-.4,1.36ZM34.52,124.77c.23.22.49.29.78.21.29-.08.63-.33,1.02-.74.31-.33.49-.62.55-.88.06-.26-.02-.5-.25-.71l-.4-.38-2.05,2.16.35.33Z"/>
      <path class="cls-2" d="M39.14,124.44c.1-.11.17-.18.23-.2.06-.02.13,0,.21.06.09.06.25.2.5.41l-4.94,5.71c-.04.05-.08.07-.12.07-.04,0-.11-.05-.22-.14-.11-.09-.26-.22-.45-.38l4.79-5.53Z"/>
      <path class="cls-2" d="M37.46,131.54l1.47,1.17c-.13.17-.24.3-.33.4-.08.1-.15.16-.19.16-.04,0-.08,0-.13-.04l-2.02-1.61,4.71-5.91s.05-.04.09-.07c.04-.02.1,0,.15.04l2.05,1.63c-.13.16-.24.29-.32.39s-.15.16-.18.17c-.04.01-.08,0-.12-.04l-1.38-1.1-1.44,1.8,1.29,1.03c-.12.16-.23.28-.31.39-.09.1-.15.16-.19.18s-.09,0-.13-.03l-1.16-.93-1.86,2.34Z"/>
      <path class="cls-2" d="M43.07,133.6c-.02-.19.05-.4.2-.62.13-.19.31-.32.52-.38.21-.05.42-.01.62.12.23.16.36.34.39.54.02.2-.04.41-.19.63-.14.2-.31.32-.52.37-.21.05-.42,0-.63-.14-.23-.16-.36-.33-.38-.52Z"/>
      <path class="cls-2" d="M53.04,133.63l-.32.57c-.04.06-.07.1-.11.11-.04,0-.09,0-.14-.04l-1.17-.67-3.33,5.83c-.03.06-.07.09-.1.09-.04,0-.12-.03-.25-.09-.13-.07-.3-.17-.51-.28l3.42-5.98-1.29-.74.33-.58c.06-.1.14-.12.25-.06l3.22,1.84Z"/>
      <path class="cls-2" d="M54.03,140.39c-.06.56-.23,1.19-.51,1.89-.04.08-.09.12-.15.12-.06,0-.18-.04-.35-.13-.07-.03-.22-.12-.45-.25.31-.75.5-1.39.57-1.93.07-.54.07-.97.02-1.29-.05-.02-.12-.04-.2-.09l-.35-.17-1.31,2.65c-.03.06-.06.09-.09.1-.03,0-.12-.02-.25-.08-.13-.06-.31-.15-.52-.25l3.34-6.77s.04-.05.08-.08c.04-.03.09-.03.16,0l.97.48c.62.31,1,.69,1.14,1.14.14.45.04,1.02-.3,1.7-.48.97-1.08,1.48-1.81,1.53.07.38.08.85.03,1.42ZM53.4,138.02c.29.14.56.13.81-.03s.5-.5.76-1.01c.2-.4.29-.74.27-1-.02-.26-.17-.47-.45-.6l-.49-.24-1.32,2.67.43.21Z"/>
      <path class="cls-2" d="M58.68,144.67c-.06,0-.17-.02-.32-.08-.18-.08-.34-.15-.48-.22l.33-1.99-1.76-.73-1.09,1.51c-.05.05-.09.08-.15.09-.05,0-.15-.02-.3-.08-.14-.06-.31-.14-.49-.24l4.71-6.27c.06-.09.18-.09.36-.02.15.06.28.13.37.19l-1.09,7.74c-.01.07-.05.1-.1.11ZM58.34,141.55l.27-1.61c.15-.91.3-1.62.46-2.11-.32.57-.72,1.18-1.18,1.82l-.95,1.33,1.4.58Z"/>
      <path class="cls-2" d="M62.39,138.23c.05-.14.1-.23.14-.27.04-.04.12-.05.22-.02.1.03.31.09.62.2l-2.53,7.11c-.02.06-.05.1-.09.11-.03.01-.12,0-.26-.05-.14-.05-.32-.11-.56-.19l2.45-6.9Z"/>
      <path class="cls-2" d="M67.97,139.6l-.19.62c-.02.07-.05.11-.08.13-.04.02-.08.01-.15,0l-1.29-.39-1.95,6.42c-.02.06-.05.1-.08.11-.03.01-.12,0-.26-.04-.14-.04-.33-.09-.56-.16l2-6.59-1.42-.43.19-.64c.03-.11.11-.15.23-.11l3.55,1.08Z"/>
      <path class="cls-2" d="M68.08,146.75l1.83.44c-.05.21-.09.38-.13.5-.03.13-.07.21-.1.23-.03.02-.08.03-.13.01l-2.51-.6,1.77-7.34s.03-.06.06-.1c.03-.04.08-.05.15-.03l2.55.61c-.05.2-.09.37-.12.49-.04.13-.07.21-.1.23-.03.03-.07.03-.13.02l-1.71-.41-.54,2.24,1.6.39c-.05.19-.09.35-.12.48-.03.13-.07.21-.1.24-.03.04-.07.04-.13.03l-1.44-.35-.7,2.91Z"/>
      <path class="cls-2" d="M71.95,148.23c-.25-.25-.39-.55-.42-.9-.03-.34,0-.76.08-1.26l.91-5.2c.01-.06.03-.11.06-.12.03-.02.12-.02.27,0,.15.02.35.05.6.09l-.95,5.42c-.09.5-.08.88,0,1.16.09.27.35.44.77.52.18.03.36.05.55.04.19,0,.33-.02.43-.06l1.14-6.54c.01-.06.03-.11.07-.12s.12-.02.27,0c.14.02.34.05.58.09l-1.28,7.33c-.17.07-.43.12-.78.14-.35.02-.73,0-1.11-.07-.55-.1-.94-.27-1.19-.52Z"/>
      <path class="cls-2" d="M79.9,147.4c.14.55.2,1.2.17,1.95,0,.09-.04.14-.09.17-.05.02-.18.03-.37,0-.08,0-.25-.03-.51-.08.03-.81,0-1.48-.13-2.01-.12-.53-.26-.93-.43-1.22-.05,0-.12,0-.22-.01l-.39-.04-.31,2.94c0,.07-.02.11-.05.13-.03.02-.11.02-.26.01-.15-.01-.34-.03-.58-.05l.8-7.51s.02-.07.04-.11c.03-.04.08-.06.15-.05l1.08.12c.69.07,1.17.3,1.46.68s.39.94.31,1.7c-.12,1.08-.51,1.76-1.18,2.06.2.33.37.77.51,1.32ZM78.5,145.39c.32.03.57-.07.75-.3.18-.24.3-.64.36-1.21.05-.45.02-.79-.09-1.03-.11-.24-.32-.38-.63-.41l-.54-.06-.32,2.96.48.05Z"/>
      <path class="cls-2" d="M84.12,147.25c-.12-.15-.18-.36-.17-.63,0-.24.08-.43.23-.6.15-.16.34-.24.58-.23.28,0,.49.09.62.24.13.15.19.36.18.63,0,.24-.09.44-.24.59-.15.16-.35.23-.6.22-.28,0-.49-.08-.61-.23Z"/>
      <path class="cls-2" d="M89.59,149.66c-.26-.12-.39-.26-.4-.43,0-.1,0-.2.04-.32.03-.12.08-.23.15-.33.3.24.68.35,1.14.33.72-.04,1.06-.43,1.02-1.18-.01-.27-.08-.5-.18-.7-.11-.21-.29-.44-.54-.72l-1.16-1.23c-.26-.29-.45-.55-.57-.79-.12-.24-.19-.49-.2-.76-.03-.48.12-.87.43-1.17s.77-.47,1.36-.5c.49-.03.85,0,1.09.09.24.09.36.21.37.38.01.18-.05.36-.19.52-.08-.06-.23-.12-.43-.16-.2-.04-.42-.06-.65-.05-.33.02-.58.1-.77.24-.19.14-.27.33-.26.58.01.19.06.36.15.52.09.15.23.34.41.55l1.26,1.29c.29.32.5.61.62.88.12.27.19.59.21.94.03.62-.09,1.13-.37,1.53-.28.39-.77.61-1.46.65-.46.02-.82-.02-1.07-.14Z"/>
      <path class="cls-2" d="M96.28,141.47s.11-.05.26-.07c.14-.02.34-.05.57-.07l.9,7.5c.01.12-.04.18-.16.2l-.65.08-1.61-2.86c-.23-.45-.7-1.45-1.41-3,.07.31.16.83.27,1.57.11.74.19,1.31.24,1.72l.32,2.66c0,.07,0,.11-.02.14-.02.03-.11.05-.25.07-.14.02-.34.05-.57.08l-.9-7.5c-.01-.12.04-.18.15-.2l.66-.08,1.58,2.81c.12.25.49,1.01,1.09,2.3.04.08.15.31.32.68v-.03c-.07-.28-.16-.79-.27-1.54-.11-.75-.19-1.32-.24-1.72l-.31-2.59c0-.06,0-.11.03-.13Z"/>
      <path class="cls-2" d="M103.84,147.91s-.15.07-.31.11c-.19.04-.37.06-.52.08l-.82-1.84-1.87.36-.08,1.86c0,.07-.03.12-.08.16s-.14.07-.3.1c-.15.03-.33.05-.54.07l.48-7.83c0-.11.1-.18.29-.21.16-.03.3-.05.41-.05l3.35,7.05c.03.06.02.11-.03.15ZM101.84,145.5l-.67-1.49c-.38-.84-.64-1.51-.78-2.02.05.66.05,1.38.02,2.17l-.06,1.63,1.49-.29Z"/>
      <path class="cls-2" d="M105.71,147.31c-.29-.1-.58-.39-.86-.87-.28-.48-.55-1.21-.8-2.21-.29-1.13-.42-2.03-.37-2.7.05-.67.19-1.14.44-1.42.25-.28.56-.48.94-.58.35-.09.62-.1.81-.03.18.07.3.19.34.36.05.19.05.38,0,.56-.26-.12-.52-.15-.76-.09-.26.07-.47.21-.62.43-.15.22-.23.58-.23,1.09,0,.51.12,1.21.35,2.1.18.7.36,1.23.55,1.59.18.36.37.59.56.7.19.1.4.12.63.07.2-.05.38-.13.53-.25.16-.11.28-.23.36-.35.13.16.22.33.26.49.06.21-.02.43-.23.64-.21.21-.5.37-.88.47-.38.1-.72.1-1.01,0Z"/>
      <path class="cls-2" d="M110.51,138.14s0,.06,0,.11l-.73,3.48c1.04.37,2.03,1.51,2.97,3.44.03.08.03.14,0,.19-.04.04-.13.09-.27.13-.18.06-.38.11-.59.16-.46-.83-.85-1.48-1.19-1.94-.34-.46-.7-.79-1.07-1-.12-.08-.29-.12-.51-.15l1.13,3.45c.02.06.02.11,0,.14-.02.03-.1.07-.23.12s-.33.11-.57.19l-2.34-7.18c-.02-.06-.02-.11,0-.14.02-.03.09-.07.23-.12.14-.05.33-.11.57-.19l1.03,3.17.64-3.66c.19-.11.36-.19.51-.24.25-.08.39-.07.43.04Z"/>
    </g>
    <g>
      <path class="cls-2" d="M16.38,115.97c-.11.46-.49.9-1.12,1.31-.72.47-1.33.65-1.85.55s-.94-.4-1.27-.9l-.21-.33-2.48,1.61c-.06.04-.1.05-.13.04-.03,0-.09-.07-.17-.19-.08-.12-.19-.28-.32-.48l6.33-4.12c.06-.04.1-.05.14-.04.04,0,.07.04.11.09l.59.91c.38.58.51,1.1.4,1.56ZM13.59,116.93c.3-.01.71-.19,1.21-.51.35-.23.58-.46.7-.69.11-.23.08-.48-.09-.74l-.3-.46-2.5,1.63.26.4c.17.27.41.4.72.38Z"/>
      <path class="cls-2" d="M17.37,117.22c.12-.09.21-.13.27-.14.06,0,.12.03.19.11.07.08.2.25.39.52l-6.17,4.35c-.05.04-.1.05-.13.04-.04-.01-.1-.07-.18-.19-.09-.12-.2-.28-.34-.48l5.98-4.22Z"/>
      <path class="cls-2" d="M12.97,123.08c.11-.08.23-.14.37-.17l6.51-1.68-1.24-1.62c-.14-.18-.24-.3-.31-.35l.51-.39s.09-.05.14-.04c.05,0,.09.03.12.08l1.98,2.58c-.03.09-.09.18-.17.24-.11.08-.23.14-.38.18l-6.57,1.67,1.29,1.68c.18.24.33.39.46.46l-.56.43c-.09.07-.18.06-.25-.03l-2.08-2.72c0-.12.07-.23.19-.32Z"/>
      <path class="cls-2" d="M15.98,126.97c.11-.09.23-.15.36-.19l6.42-2.01-1.32-1.56c-.15-.17-.26-.28-.33-.34l.49-.41s.09-.06.14-.05c.05,0,.09.03.13.07l2.11,2.48c-.02.1-.08.18-.16.25-.1.09-.22.15-.37.2l-6.48,2,1.37,1.62c.19.23.35.37.48.43l-.54.46c-.09.08-.17.07-.25-.02l-2.21-2.61c0-.12.06-.23.17-.33Z"/>
      <path class="cls-2" d="M22.01,134.17c-.06-.02-.14-.09-.26-.21-.14-.14-.25-.27-.34-.4l1.11-1.68-1.31-1.38-1.61.93c-.06.03-.12.04-.17.02-.05-.02-.13-.08-.24-.2-.1-.11-.22-.25-.35-.42l6.86-3.8c.09-.05.2-.01.34.13.12.12.2.23.26.32l-4.15,6.62c-.04.06-.08.07-.14.06ZM22.98,131.19l.9-1.36c.51-.77.94-1.35,1.28-1.74-.53.39-1.14.79-1.82,1.18l-1.41.82,1.04,1.1Z"/>
      <path class="cls-2" d="M26.46,134.98c0-.19.1-.38.29-.58.16-.17.35-.27.57-.29.22-.02.42.05.59.21.21.19.31.39.3.59,0,.2-.1.4-.28.59-.17.18-.36.28-.57.29-.22.02-.42-.06-.6-.23-.21-.19-.31-.38-.3-.57Z"/>
      <path class="cls-2" d="M29.43,140.64c-.1-.35-.03-.77.21-1.29s.67-1.17,1.31-1.96c.7-.87,1.31-1.48,1.83-1.83.52-.35.99-.51,1.39-.48.4.03.81.22,1.21.54.27.22.46.44.55.66.1.22.1.39,0,.51-.11.14-.26.26-.45.37-.03-.13-.09-.26-.18-.39-.09-.13-.2-.25-.34-.36-.3-.24-.6-.36-.9-.35-.3.01-.63.16-1.01.45-.38.29-.82.76-1.34,1.4-.53.66-.9,1.18-1.1,1.57-.2.39-.29.69-.25.9.03.21.15.4.36.56.14.11.27.18.39.2.12.03.22.02.29,0l1.72-2.14-.64-.51.35-.44c.07-.09.16-.1.27,0l1.11.9-2.59,3.23c-.51.01-1.01-.17-1.48-.55-.4-.32-.64-.65-.74-1Z"/>
      <path class="cls-2" d="M37.05,137.39c.06-.08.1-.12.15-.13.04,0,.1.02.19.07.09.05.26.18.53.37l-4.06,5.57,1.52,1.11-.39.54c-.04.05-.08.08-.12.09-.04,0-.08-.01-.13-.05l-2.09-1.52,4.4-6.04Z"/>
      <path class="cls-2" d="M39.54,148.13c-.06,0-.16-.05-.3-.14-.16-.11-.31-.21-.43-.31l.69-1.9-1.59-1.04-1.35,1.28c-.05.04-.11.06-.16.06-.05,0-.15-.05-.28-.14-.13-.08-.27-.19-.44-.33l5.79-5.29c.07-.07.19-.06.36.05.14.09.25.18.33.25l-2.5,7.4c-.02.06-.07.09-.12.09ZM39.78,145l.56-1.53c.31-.87.6-1.53.85-1.99-.42.5-.92,1.03-1.49,1.57l-1.18,1.13,1.27.83Z"/>
      <path class="cls-2" d="M41.25,148.99c-.14-.28-.13-.69,0-1.22.14-.54.47-1.25.98-2.13.59-1.01,1.13-1.74,1.63-2.18.5-.44.94-.68,1.31-.7s.73.06,1.07.25c.31.18.51.37.59.55.08.18.08.35,0,.49-.1.17-.23.3-.39.4-.1-.27-.26-.47-.47-.6-.23-.14-.48-.18-.75-.13-.26.05-.57.25-.93.61-.36.36-.77.94-1.23,1.74-.36.62-.61,1.13-.73,1.52-.12.39-.15.68-.09.89.06.21.2.37.4.49.18.1.36.17.55.2.19.03.36.03.5,0-.02.21-.07.39-.16.53-.11.19-.32.29-.61.29-.3,0-.62-.09-.96-.29-.34-.2-.58-.44-.71-.72Z"/>
      <path class="cls-2" d="M47.85,144.49c.07-.13.13-.21.18-.24.05-.03.12-.03.22.01.1.04.29.14.58.29l-3.56,6.66c-.03.06-.06.09-.1.1-.04,0-.12-.02-.25-.09-.13-.06-.3-.16-.52-.27l3.45-6.46Z"/>
      <path class="cls-2" d="M47.79,151.79l1.69.82c-.09.19-.17.35-.23.46-.06.12-.11.19-.15.2-.04.02-.08,0-.13-.01l-2.32-1.13,3.32-6.78s.04-.05.08-.08c.04-.03.09-.03.16,0l2.35,1.15c-.09.19-.17.34-.23.45-.06.12-.11.19-.14.21-.03.02-.08.02-.13,0l-1.58-.77-1.01,2.07,1.48.72c-.09.18-.16.33-.22.44-.06.12-.11.19-.15.22-.04.03-.08.03-.13,0l-1.33-.65-1.31,2.69Z"/>
      <path class="cls-2" d="M54.03,153.18c-.03.57-.16,1.2-.41,1.91-.03.08-.08.12-.14.13-.06,0-.18-.03-.36-.11-.07-.03-.23-.11-.46-.22.27-.76.43-1.42.47-1.96.04-.54.02-.97-.05-1.29-.05-.01-.12-.04-.21-.08l-.36-.16-1.17,2.72c-.03.06-.05.1-.09.11-.03,0-.12-.01-.25-.07-.14-.05-.31-.13-.53-.22l2.99-6.94s.04-.06.07-.09c.04-.03.09-.03.16,0l.99.43c.64.27,1.03.63,1.2,1.08.16.45.09,1.02-.21,1.71-.43.99-1,1.53-1.73,1.62.09.38.12.85.1,1.41ZM53.28,150.85c.29.13.56.1.8-.07.24-.17.47-.52.7-1.05.18-.41.25-.75.22-1.01-.03-.26-.2-.46-.48-.58l-.5-.22-1.18,2.74.44.19Z"/>
      <path class="cls-2" d="M58.06,154.3c-.07-.18-.06-.39.03-.65.08-.22.21-.39.41-.5.19-.11.4-.12.63-.04.27.09.44.23.51.42.07.19.07.4-.02.65-.08.23-.22.39-.41.49-.19.1-.41.11-.64.03-.27-.09-.44-.23-.5-.41Z"/>
      <path class="cls-2" d="M62.99,158.37c-.2-.24-.3-.63-.3-1.19,0-.55.14-1.32.41-2.31.31-1.13.66-1.97,1.03-2.52.37-.55.74-.89,1.09-1.01.35-.12.72-.13,1.1-.03.35.1.59.23.71.38.12.16.16.32.12.48-.05.19-.15.35-.28.48-.17-.24-.37-.39-.61-.46-.26-.07-.51-.05-.75.06-.24.11-.49.39-.75.83-.26.44-.51,1.1-.75,1.99-.19.7-.3,1.25-.32,1.65-.02.41.02.7.14.89.11.18.28.31.51.37.2.05.39.07.58.05s.36-.06.49-.12c.03.21.03.39-.02.56-.06.21-.23.36-.52.44-.29.08-.62.07-1-.04-.38-.11-.67-.28-.87-.51Z"/>
      <path class="cls-2" d="M67.18,159.38c-.22-.29-.34-.73-.34-1.32,0-.59.11-1.41.34-2.44.21-.95.45-1.69.72-2.21.27-.53.58-.88.94-1.06.35-.18.77-.21,1.24-.11.47.1.81.3,1.03.6.22.29.33.73.33,1.3,0,.57-.1,1.35-.32,2.33-.22.98-.46,1.75-.73,2.29-.27.54-.57.91-.92,1.1-.35.19-.76.23-1.24.12-.48-.11-.84-.3-1.06-.59ZM69.15,158.92c.19-.17.37-.46.54-.89.17-.42.33-1.01.5-1.76.17-.75.27-1.33.3-1.76.04-.43,0-.75-.1-.97-.1-.22-.28-.36-.54-.41-.26-.06-.48,0-.68.17-.2.17-.38.48-.56.92-.17.44-.35,1.05-.52,1.83-.15.69-.25,1.24-.28,1.66-.03.42,0,.74.11.96.1.22.28.36.53.41.26.06.49,0,.69-.16Z"/>
      <path class="cls-2" d="M76.08,153.51s.12-.02.26,0c.14.02.33.05.57.09l-1.19,7.46c-.02.12-.09.16-.21.14l-.65-.1-.76-3.2c-.1-.49-.27-1.58-.53-3.27-.02.32-.08.84-.17,1.58-.1.74-.18,1.31-.24,1.72l-.42,2.65c-.01.06-.03.11-.06.12-.03.02-.12.02-.26,0-.14-.02-.33-.05-.57-.08l1.19-7.46c.02-.12.08-.17.2-.15l.66.1.75,3.14c.05.27.19,1.11.42,2.52.01.09.06.34.12.75v-.03c.01-.29.07-.81.17-1.56.1-.75.18-1.32.25-1.72l.41-2.57c.01-.07.03-.11.06-.12Z"/>
      <path class="cls-2" d="M80.87,154.03c-.02.21-.04.37-.06.49s-.04.19-.06.22c-.02.03-.07.04-.12.03l-1.75-.19-.25,2.34,1.64.17c-.02.2-.04.36-.06.49-.02.13-.04.22-.06.25-.03.04-.07.05-.13.05l-1.48-.16-.38,3.6s-.02.07-.04.11-.07.05-.14.04l-.71-.07.8-7.51s.02-.07.04-.11c.03-.04.08-.06.15-.05l2.61.28Z"/>
      <path class="cls-2" d="M81.87,154.51c0-.15.03-.24.06-.29.03-.05.1-.08.21-.08.11,0,.32,0,.65.03l-.52,7.53c0,.07-.02.11-.05.13-.03.02-.12.03-.26.02-.15,0-.34-.02-.59-.04l.51-7.3Z"/>
      <path class="cls-2" d="M84.07,161.89c-.25-.14-.37-.29-.36-.46,0-.09.03-.2.07-.32.04-.12.1-.22.18-.31.28.27.65.41,1.11.42.72.02,1.09-.34,1.11-1.09,0-.26-.03-.5-.12-.72-.09-.21-.25-.47-.48-.76l-1.05-1.32c-.24-.31-.41-.59-.5-.84-.1-.25-.14-.51-.13-.77.01-.48.19-.86.53-1.13.34-.28.8-.41,1.39-.39.49.01.85.07,1.08.18.23.11.34.24.34.41,0,.19-.08.35-.23.5-.08-.07-.22-.13-.42-.19-.2-.06-.41-.1-.65-.1-.33-.01-.59.05-.79.17-.2.13-.3.31-.31.55,0,.19.03.37.1.53.08.16.2.35.36.58l1.15,1.39c.27.34.45.65.54.93.1.28.14.6.13.95-.02.62-.19,1.12-.5,1.49-.31.37-.82.54-1.51.52-.46-.01-.81-.09-1.06-.23Z"/>
      <path class="cls-2" d="M89.39,161.25l1.88-.03c0,.21,0,.39,0,.52,0,.13-.01.21-.04.24-.02.03-.07.05-.12.05l-2.58.05-.14-7.55s0-.07.03-.11c.02-.04.07-.07.14-.07l2.62-.05c0,.21,0,.38,0,.51,0,.13-.01.22-.03.25-.02.03-.06.05-.12.05l-1.76.03.04,2.31,1.65-.03c0,.2,0,.36,0,.5,0,.13-.01.22-.03.26-.02.04-.06.06-.12.06l-1.49.03.05,2.99Z"/>
      <path class="cls-2" d="M95.58,159.64c.24.52.4,1.15.5,1.89,0,.09-.02.15-.06.18-.05.03-.17.05-.37.07-.08,0-.25.01-.51.01-.11-.8-.26-1.46-.48-1.96-.21-.5-.42-.87-.63-1.12-.05.01-.12.02-.22.03l-.39.03.2,2.95c0,.07,0,.11-.03.13-.02.02-.11.04-.25.06-.15.01-.34.03-.58.04l-.51-7.53s0-.07.03-.11c.02-.05.06-.07.14-.08l1.08-.07c.69-.05,1.21.09,1.55.42s.54.86.6,1.62c.07,1.08-.19,1.82-.8,2.23.25.29.5.7.73,1.21ZM93.85,157.91c.32-.02.55-.16.68-.43.14-.26.18-.68.15-1.26-.03-.45-.12-.78-.27-1-.15-.22-.38-.32-.69-.3l-.54.04.2,2.97.48-.03Z"/>
      <path class="cls-2" d="M96.73,154.3c-.02-.15-.01-.25.01-.3.02-.05.09-.09.19-.11.1-.02.32-.05.64-.08l.79,7.51c0,.07,0,.11-.03.14-.03.03-.11.05-.26.07-.14.02-.34.04-.59.07l-.76-7.28Z"/>
      <path class="cls-2" d="M100.75,160.38l1.86-.27c.03.21.05.38.07.51.01.13.01.21,0,.25-.02.03-.06.05-.12.06l-2.55.36-1.07-7.48s0-.07.02-.11c.02-.05.06-.07.13-.09l2.59-.37c.03.2.05.37.07.5.02.13.01.22,0,.25-.02.03-.05.06-.11.06l-1.74.25.33,2.29,1.63-.23c.03.2.05.36.07.49.01.13.01.22,0,.26-.02.04-.05.07-.11.08l-1.47.21.42,2.96Z"/>
    </g>
    <path class="cls-1" d="M130.44,10.36c-.41-1.24-1.28-2.16-2.32-2.49-.64-.88-1.79-1.42-3.09-1.43-2.25,0-4.59,1.5-6.41,4.13-1.64,2.37-4.5,8.19-5.3,11.13-.52,1.91-.58,3.49-.21,4.58l-12.58,16.38c-.7.88-.53,2.17.38,2.83s2.19.43,2.81-.52l11.72-17.13c1.13-.03,2.55-.58,4.13-1.62,2.54-1.68,7.19-6.21,8.93-8.5,1.94-2.55,2.65-5.24,1.94-7.37ZM126.08,9.51c.36-.22.84-.45,1.21-.4.17.34.1.87,0,1.28-.93,4.01-7.64,12.03-11.89,15.11,1.6-4.99,7.15-13.86,10.67-15.99ZM114.6,21.98c.75-2.76,3.55-8.45,5.09-10.68,1.54-2.24,3.45-3.51,5.24-3.51.43,0,.83.08,1.18.23-.21.09-.43.2-.65.33-3.77,2.28-9.44,11.26-11.24,16.63-.06-.72.03-1.71.38-3ZM127.48,16.94c-1.64,2.16-6.18,6.58-8.57,8.16-.95.62-1.74,1-2.39,1.2,4.54-3.48,11.09-11.46,12.08-15.68.06-.24.09-.46.11-.68.2.26.36.57.48.92.56,1.7-.06,3.91-1.7,6.07Z"/>
    <path class="cls-1" d="M146.25,55.18l9.15-2.09c.33-.08.54-.41.46-.74s-1.76-7.7-1.82-7.94-.29-.38-.53-.33l-9.32,2.13c-1.58.36-3.93,3.34-4.46,4.99l-13.91,3.18c-.33-.37-.85-.56-1.37-.47l-13.24,2.39c-1.19.21-1.96,1.38-1.69,2.55s1.47,1.89,2.63,1.57l12.96-3.6c.51-.14.89-.54,1.03-1.02l13.9-3.18c1.2,1.27,4.61,2.92,6.19,2.56ZM152.54,50.84c.32-.07.64.13.71.45s-.13.64-.45.71l-5.27,1.21c-.32.07-.64-.13-.71-.45s.13-.64.45-.71l5.27-1.21ZM152.02,48.53c.32-.07.64.13.71.45s-.13.64-.45.71l-5.27,1.21c-.32.07-.64-.13-.71-.45s.13-.64.45-.71l5.27-1.21ZM146.48,48.59c-.32.07-.64-.13-.71-.45s.13-.64.45-.71l5.27-1.21c.32-.07.64.13.71.45s-.13.64-.45.71l-5.27,1.21Z"/>
    <path class="cls-1" d="M140.89,26.6h0s-.01,0-.02,0c-.08.02-.16.03-.24.05-.04,0-.07.01-.11.02-.08.02-.15.03-.23.05-.04,0-.08.02-.12.03-.08.02-.16.04-.24.06-.04,0-.07.02-.11.03-.09.02-.18.04-.27.07-.02,0-.03,0-.05.01-4.14,1.07-10.61,3.77-20.32,10.11-.47.31-.63.94-.31,1.4l1.8,2.61h0c-.2.05-.4.13-.59.23l-2.95,1.6h0s-9.68,5.27-9.68,5.27c-1.12.61-1.47,2.04-.75,3.08l.42.61c.4.58,1.19.73,1.77.33l11.18-7.7,3.44-2.37,15.29-10.53,3.23-2.23,3.94-2.71s-1.36-.75-5.09-.01Z"/>
  </g>
</svg>