<svg xmlns="http://www.w3.org/2000/svg" viewBox="0 0 41.4 41.4"><defs><style>.cls-1{fill:#fff;}</style></defs><g id="Calque_2" data-name="Calque 2"><g id="Calque_1-2" data-name="Calque 1"><path class="cls-1" d="M27.6,14.7a11.56,11.56,0,0,0-7-2,12.51,12.51,0,0,0-7,2,8.09,8.09,0,0,1,7,7.4A8.19,8.19,0,0,1,27.6,14.7Z"/><path class="cls-1" d="M28.6,16.7a6,6,0,1,0,6,6A6,6,0,0,0,28.6,16.7Zm0,9.1a3.2,3.2,0,1,1,3.2-3.2A3.16,3.16,0,0,1,28.6,25.8Z"/><path class="cls-1" d="M12.8,16.7a6,6,0,1,0,6,6A6,6,0,0,0,12.8,16.7Zm0,9.1A3.2,3.2,0,1,1,16,22.6,3.29,3.29,0,0,1,12.8,25.8Z"/><path class="cls-1" d="M30,0H11.4A11.39,11.39,0,0,0,0,11.4V30A11.39,11.39,0,0,0,11.4,41.4H30A11.39,11.39,0,0,0,41.4,30V11.4A11.39,11.39,0,0,0,30,0ZM28.6,30.6a8.26,8.26,0,0,1-5.3-2v.1L21,30.4a.48.48,0,0,1-.7,0L18,28.7a7.88,7.88,0,0,1-6.2,1.9A8,8,0,0,1,7.1,17L5.8,15.7a.58.58,0,0,1,.4-1H9.5a18.69,18.69,0,0,1,11.1-4,19,19,0,0,1,11.2,4h3.3c.5,0,.8.7.4,1L34.2,17a8.47,8.47,0,0,1,2.4,5.6A8,8,0,0,1,28.6,30.6Z"/></g></g></svg>